<svg width="42" height="46" viewBox="0 0 42 46" fill="none" xmlns="http://www.w3.org/2000/svg">
<path d="M32.0264 17.2495H22.0515V22.2812C22.0515 25.8483 19.9318 28.7505 17.3265 28.7505C14.7212 28.7505 12.6015 25.8483 12.6015 22.2812V11.3553L8.34242 14.8595C7.07586 15.8928 6.30148 17.7707 6.30148 19.7833V24.0333L1.05149 28.1844C0.0474342 28.9751 -0.300378 30.7362 0.283684 32.1109L5.53367 44.5643C6.11117 45.939 7.39742 46.4063 8.40148 45.6156L15.1871 40.2515H24.1515C26.468 40.2515 28.3514 37.6727 28.3514 34.501H29.4014C30.563 34.501 31.5014 33.2161 31.5014 31.6257V25.8752H32.0264C32.8992 25.8752 33.6014 24.9138 33.6014 23.7188V19.4059C33.6014 18.2109 32.8992 17.2495 32.0264 17.2495ZM41.7192 13.8891L36.4692 1.43568C35.8917 0.0609522 34.6055 -0.406275 33.6014 0.384417L26.8158 5.74854H20.109C19.3215 5.74854 18.5536 6.05404 17.8843 6.6201L15.6858 8.49799C15.069 9.01913 14.7015 9.9446 14.7015 10.933V22.2812C14.7015 24.2669 15.8762 25.8752 17.3265 25.8752C18.7768 25.8752 19.9515 24.2669 19.9515 22.2812V14.3743H32.0264C34.0542 14.3743 35.7014 16.6295 35.7014 19.4059V21.9667L40.9514 17.8156C41.9555 17.0159 42.2967 15.2638 41.7192 13.8891Z" fill="#AE00FF"/>
</svg>
