<svg width="25" height="27" viewBox="0 0 25 27" fill="none" xmlns="http://www.w3.org/2000/svg">
<path d="M5.00035 5.0625C6.03546 5.0625 6.87526 3.92871 6.87526 2.53125C6.87526 1.13379 6.03546 0 5.00035 0C3.96524 0 3.12544 1.13379 3.12544 2.53125C3.12544 3.92871 3.96524 5.0625 5.00035 5.0625ZM19.9996 5.0625C21.0348 5.0625 21.8746 3.92871 21.8746 2.53125C21.8746 1.13379 21.0348 0 19.9996 0C18.9645 0 18.1247 1.13379 18.1247 2.53125C18.1247 3.92871 18.9645 5.0625 19.9996 5.0625ZM24.9096 24.685L23.1909 18.8842L21.5855 21.3311L21.5074 22.2908L22.5894 25.94C22.7847 26.5992 23.2534 27 23.7495 27C23.9057 27 24.062 26.9631 24.2143 26.8787C24.8549 26.5307 25.1674 25.5498 24.9096 24.685ZM23.5737 13.6213L22.8511 9.39199C22.6714 8.33731 22.1245 7.45137 21.3863 7.02422C20.6637 6.60234 19.8629 6.6709 19.195 7.19824C18.3083 7.90488 17.6443 9.01758 17.3162 10.3307L16.8748 12.1184L16.2498 12.6562V7.59375C16.2498 7.12969 15.9686 6.75 15.6249 6.75H9.37515C9.03141 6.75 8.75018 7.12969 8.75018 7.59375V12.6562L8.1213 12.1184L7.67991 10.3307C7.35571 9.0123 6.68777 7.90488 5.8011 7.19824C5.12925 6.6709 4.33241 6.60234 3.60979 7.02422C2.87154 7.45137 2.32469 8.33731 2.14502 9.39199L1.4263 13.6213C1.24662 14.676 1.45364 15.7939 1.98877 16.6113L4.61365 20.6139L5.00816 25.4971C5.07847 26.3566 5.61751 27 6.25029 27C6.29717 27 6.34013 26.9947 6.387 26.9895C7.07447 26.8893 7.56664 26.0561 7.49242 25.1279L7.09791 20.2342C7.03932 19.5486 6.82839 18.9105 6.48856 18.3885L4.79724 15.8045L5.4847 12.0973L5.75032 13.173C5.91046 13.8322 6.21514 14.407 6.7073 14.8922L8.7033 16.6061C8.88298 16.759 9.17594 16.8486 9.37515 16.8697H15.6249C15.8241 16.8486 16.117 16.759 16.2967 16.6061L18.2927 14.8922C18.7849 14.407 19.0895 13.8375 19.2497 13.173L19.5153 12.0973L20.2028 15.8045L18.5114 18.3885C18.1716 18.9105 17.9607 19.5486 17.9021 20.2342L17.5076 25.1279C17.4334 26.0561 17.9294 26.8893 18.613 26.9895C18.6599 26.9947 18.7028 27 18.7497 27C19.3786 27 19.9215 26.3619 19.9918 25.4971L20.3863 20.6139L23.0112 16.6113C23.5424 15.7939 23.7534 14.676 23.5737 13.6213ZM1.80909 18.8842L0.0904245 24.685C-0.167376 25.5498 0.14511 26.5307 0.785704 26.8787C1.44192 27.2268 2.15673 26.7891 2.41063 25.94L3.49261 22.2908L3.41449 21.3311L1.80909 18.8842Z" fill="black"/>
</svg>
