<svg width="45" height="41" viewBox="0 0 45 41" fill="none" xmlns="http://www.w3.org/2000/svg">
<path d="M13.5 20.5C17.8523 20.5 21.375 15.915 21.375 10.25C21.375 4.58504 17.8523 0 13.5 0C9.14766 0 5.625 4.58504 5.625 10.25C5.625 15.915 9.14766 20.5 13.5 20.5ZM18.9 23.4286H18.3164C16.8539 24.3438 15.2297 24.8929 13.5 24.8929C11.7703 24.8929 10.1531 24.3438 8.68359 23.4286H8.1C3.62812 23.4286 0 28.1509 0 33.9714V36.6071C0 39.0324 1.51172 41 3.375 41H23.625C25.4883 41 27 39.0324 27 36.6071V33.9714C27 28.1509 23.3719 23.4286 18.9 23.4286ZM33.75 20.5C37.4766 20.5 40.5 16.5647 40.5 11.7143C40.5 6.86384 37.4766 2.92857 33.75 2.92857C30.0234 2.92857 27 6.86384 27 11.7143C27 16.5647 30.0234 20.5 33.75 20.5ZM37.125 23.4286H36.8578C35.8805 23.8679 34.8469 24.1607 33.75 24.1607C32.6531 24.1607 31.6195 23.8679 30.6422 23.4286H30.375C28.9406 23.4286 27.6187 23.9685 26.4586 24.8379C28.1742 27.2449 29.25 30.4388 29.25 33.9714V37.4857C29.25 37.6871 29.2148 37.8792 29.2078 38.0714H41.625C43.4883 38.0714 45 36.1038 45 33.6786C45 28.0136 41.4773 23.4286 37.125 23.4286V23.4286Z" fill="#AE00FF"/>
</svg>
